<svg  xmlns="http://www.w3.org/2000/svg" xmlns:xlink="http://www.w3.org/1999/xlink" x="0px" y="0px"
      width="95"
      height="60"
      viewBox="0 0 403.6 251.7" style="overflow:visible;enable-background:new 0 0 403.6 251.7;"
      xml:space="preserve">

                                <polygon fill="#b3b3b3" points="249,167 362.4,101.5 362.4,82.4 249,147.9 "/>
    <polygon fill="#b3b3b3" points="362.4,0 249,65.5 249,84.6 362.4,19.1 "/>
    <path fill="#b3b3b3" d="M280.1,234.5c-2.2-3.7-3.9-7.9-5-12.8c-0.9-3.8-1.4-7.9-1.5-12c-0.1-4.1,0.1-8.3,0.7-12.2
                                        c0.6-3.6,1.6-7,3-10.2c1.9-4.4,4.8-8.4,8.5-11.4c3.8-3.2,8.6-5.5,14.3-6.6c5.4-1.1,11.6-1.1,17,0c4.3,0.9,7.8,2.4,10.7,4.5
                                        c3.6,2.6,6.2,6.2,7.9,10.3c1.6,3.9,2.3,8.2,2.4,12.5c0,1.3,0,2.6,0,3.8H316v-2.1c0-1.1-0.1-2.2-0.2-3.3c-0.2-2.2-0.7-4.7-1.9-6.6
                                        c-1-1.6-2.5-2.6-4.4-3c-1.6-0.4-3.5-0.3-5.1,0.1c-1.6,0.5-3,1.4-4.1,2.6c-1.4,1.5-2.3,3.3-3,5.2c-0.5,1.4-0.9,3.1-1.2,4.8
                                        c-0.7,4.1-0.5,8.4,0.1,12.5c0.4,2.3,0.9,4.5,1.7,6.7c1.9,5.3,5.1,10.2,9.7,13.5c2.6,1.8,5.6,3.1,9.2,3.9c3.5,0.7,7.1,0.7,10.6,0.4
                                        c2.6-0.3,4.8-0.8,6.9-1.6l2.9-1.1v15.4l-1.5,0.5c-4.4,1.4-9.2,2.6-14.3,3.2c-2.5,0.3-5,0.4-7.5,0.4s-5-0.2-7.5-0.5
                                        c-4.2-0.6-8.1-1.8-11.7-3.5C288.6,244.8,283.6,240.3,280.1,234.5 M251.1,250H249v-79.9h21V250H251.1z M176.6,186.6v33.6
                                        c0,1.6,0,3.2,0.1,4.6c0.2,2.3,0.6,4.9,1.8,7c1,1.6,2.5,2.6,4.3,3c2.1,0.5,4.4,0.3,6.5-0.1c2.1-0.4,4.2-1,6.3-1.5v17l-1.8,0.3
                                        c-2.4,0.4-4.8,0.8-7.2,1c-2.4,0.2-4.8,0.4-7.3,0.3c-2.4,0-4.9-0.2-7.2-0.6c-3.3-0.6-6.6-1.7-9.4-3.7c-2.3-1.7-3.9-3.8-5.1-6.4
                                        c-0.7-1.5-1.1-3.1-1.5-4.7c-0.6-3.4-0.6-6.9-0.6-10.4v-39.3h-14v-16.5h14v-23.2l21-12.1l0,35.3h26.5v-23.2l21-12.1l0,35.3h21.2
                                        v16.5h-21.2v33.6c0,1.6,0,3.2,0.1,4.6c0.2,2.3,0.5,4.9,1.8,7c1,1.6,2.5,2.6,4.3,3c2.1,0.5,4.4,0.3,6.5-0.1c2.1-0.4,4.2-1,6.3-1.5
                                        v17l-1.8,0.3c-2.4,0.4-4.8,0.8-7.3,1c-2.4,0.2-4.8,0.4-7.3,0.3c-2.4,0-4.9-0.2-7.2-0.6c-3.3-0.6-6.6-1.7-9.3-3.7
                                        c-2.3-1.7-4-3.8-5.1-6.4c-0.7-1.5-1.1-3.1-1.5-4.7c-0.7-3.4-0.6-6.9-0.6-10.4v-39.3H176.6z M123,192.6c-0.1-0.7-0.3-1.5-0.5-2.2
                                        c-0.6-1.9-1.7-3.5-3.3-4.7c-0.7-0.5-1.6-1-2.7-1.3c-3-0.9-6.5-0.8-9.2,0.7c-2.1,1.1-3.6,3-4.7,5c-0.4,0.8-0.7,1.7-1,2.5H123z
                                         M87.7,235.2c-2.3-3.8-3.9-8.1-5.1-13c-1.1-4.9-1.7-10.3-1.7-16.2c0-3.6,0.2-7.4,0.9-11c0.6-3.2,1.5-6.3,2.8-9.3
                                        c1.6-3.5,3.7-6.8,6.5-9.4c3.2-3.1,7.2-5.3,12-6.6c3.2-0.9,6.8-1.3,10.7-1.3c2.8,0,5.7,0.3,8.5,1c3.5,0.8,6.5,2.2,9.2,4.1
                                        c3.2,2.2,5.7,5.2,7.6,8.6c2.2,4.1,3.6,9,4.1,14.4c0.2,2.5,0.2,5,0.2,7.6v3.7h-42.5c0.3,3.4,1,6.7,2.2,10c1.1,2.8,2.5,5.6,4.3,8.1
                                        c1.8,2.5,4,4.7,6.6,6.3c3.5,2.2,7.5,3.2,11.6,3.2c4.4,0,8.9-1.2,13-2.7l2.9-1.1v16.8l-1.5,0.5c-3.9,1.3-8,2.2-12.4,2.7
                                        c-2.7,0.3-5.5,0.5-8.3,0.4c-2.8,0-5.6-0.2-8.3-0.7c-3-0.5-5.8-1.4-8.4-2.5c-2.6-1.1-5-2.6-7.1-4.3
                                        C92.4,241.7,89.8,238.7,87.7,235.2 M362.4,213.1c0-6.1,1.3-12,4-17.5c1.2-2.3,2.8-4.4,4.8-6.2c1.2-1.1,2.6-1.8,4.1-2.1
                                        c2.3-0.5,4.8-0.4,5.8,2c0.3,0.6,0.4,1.4,0.6,2c0.7,3.5,0.7,10,0.7,12.5V250h21.1v-54.6c-0.1-7.1-1.5-14.9-6.5-20.4
                                        c-4.1-4.5-9.1-6.5-14.5-6.6c-8.7-0.1-17.8,5.3-20.2,13.6v-47.3l-21,12.1V250h21V213.1z M55.1,250v-42.4H21.9V250H0V146.9h21.9V190
                                        h33.2v-43.1H77V250H55.1"/>
    <polygon fill="#b3b3b3" points="249,139.5 362.4,74 362.4,54.9 249,120.4 	"/>
    <polygon fill="#b3b3b3" points="249,112 362.4,46.5 362.4,27.5 249,93 	"/>
                            </svg>