<?xml version="1.0" encoding="UTF-8"?>
<svg id="_Слой_2" data-name="Слой 2" xmlns="http://www.w3.org/2000/svg" xmlns:xlink="http://www.w3.org/1999/xlink" viewBox="0 0 139.1 50">
  <defs>
    <style>
      .cls-1 {
        fill: #b3b3b3;
      }

      .cls-1, .cls-2, .cls-3 {
        stroke-width: 0px;
      }

      .cls-2 {
        fill: none;
      }

      .cls-3 {
        fill: #b3b3b3;
      }

      .cls-4 {
        clip-path: url(#clippath);
      }
    </style>
    <clipPath id="clippath">
      <rect class="cls-2" width="139.1" height="50"/>
    </clipPath>
  </defs>
  <g id="_Слой_1-2" data-name="Слой 1">
    <g class="cls-4">
      <path class="cls-3" d="m38.24,45.83h2.24c.31,0,.58-.05.82-.13.24-.08.45-.2.62-.35.18-.15.32-.32.43-.52.11-.2.2-.41.25-.64.06-.22.08-.46.08-.69,0-.38-.08-.7-.24-.96-.16-.26-.39-.47-.7-.61-.31-.14-.7-.21-1.16-.21h-2.42l-1.49,7.02h.94l.62-2.91Zm.69-3.29h1.58c.3,0,.54.04.73.13.18.09.32.21.4.37.08.16.12.36.12.59,0,.09-.01.2-.04.31-.03.12-.07.24-.13.36-.06.12-.14.24-.25.34-.11.1-.24.19-.4.25-.16.07-.36.1-.59.1h-1.93l.52-2.47Zm5.29,3.25c.05-.21.12-.41.22-.6.09-.19.21-.35.34-.49.14-.14.29-.26.47-.34.18-.08.38-.12.61-.12.15,0,.3.02.44.07.14.05.26.12.38.22.11.1.2.24.26.41.07.17.1.38.1.62v.23h-2.81Zm3.59.65c0-.07.01-.14.02-.22,0-.08.01-.16.01-.26,0-.1,0-.22,0-.37,0-.11,0-.23-.02-.37-.02-.14-.05-.29-.1-.45-.05-.16-.11-.31-.2-.47-.09-.15-.21-.29-.35-.41-.14-.12-.32-.22-.54-.3-.21-.07-.46-.11-.76-.11-.33,0-.64.06-.92.18-.28.12-.52.28-.74.48-.22.2-.4.44-.55.72-.15.27-.26.57-.34.89-.08.32-.12.64-.12.98,0,.44.08.83.24,1.15.16.33.38.58.67.76.29.18.65.27,1.07.27.41,0,.77-.07,1.08-.21.31-.14.57-.34.79-.61.22-.27.39-.6.52-.98h-.85c-.1.21-.21.39-.35.54-.13.15-.29.28-.48.36-.18.09-.4.13-.64.13-.28,0-.51-.06-.69-.17-.18-.11-.32-.26-.4-.47-.08-.2-.13-.44-.13-.73,0-.06,0-.12,0-.18,0-.06.02-.11.03-.16h3.73Zm.76,2.31h6.81l1.09-5.11h-.88l-.92,4.35h-2.08l.92-4.35h-.88l-.92,4.35h-2.08l.92-4.35h-.88l-1.09,5.11Zm9.52-2.95c.05-.21.12-.41.21-.6.09-.19.21-.35.34-.49.14-.14.29-.26.47-.34.18-.08.38-.12.61-.12.15,0,.3.02.44.07.14.05.26.12.38.22.11.1.2.24.26.41.06.17.1.38.1.62v.23h-2.81Zm3.59.65c0-.07.01-.14.02-.22,0-.08,0-.16.01-.26,0-.1,0-.22,0-.37,0-.11,0-.23-.02-.37-.02-.14-.05-.29-.1-.45-.05-.16-.11-.31-.2-.47-.09-.15-.21-.29-.35-.41-.15-.12-.32-.22-.54-.3-.21-.07-.46-.11-.76-.11-.33,0-.64.06-.92.18-.28.12-.52.28-.74.48-.21.2-.4.44-.55.72-.15.27-.26.57-.34.89-.08.32-.12.64-.12.98,0,.44.08.83.24,1.15.16.33.38.58.68.76.29.18.65.27,1.06.27.41,0,.77-.07,1.08-.21.31-.14.57-.34.79-.61.22-.27.39-.6.52-.98h-.85c-.1.21-.21.39-.35.54-.13.15-.29.28-.48.36-.18.09-.4.13-.65.13-.28,0-.51-.06-.69-.17-.18-.11-.31-.26-.4-.47-.08-.2-.13-.44-.13-.73,0-.06,0-.12,0-.18,0-.06.02-.11.03-.16h3.73Zm.76,2.31h.88l.51-2.41h2.33l-.51,2.41h.88l1.09-5.11h-.88l-.43,2h-2.33l.43-2h-.88l-1.09,5.11Zm5.54,0h.92l3.16-3.91h.02l-.83,3.91h.88l1.08-5.11h-.98l-3.06,3.72h-.02l.79-3.72h-.88l-1.09,5.11Zm6.83-2.95c.05-.21.12-.41.21-.6.09-.19.21-.35.34-.49.13-.14.29-.26.47-.34.18-.08.38-.12.61-.12.15,0,.3.02.44.07.14.05.26.12.37.22.11.1.2.24.26.41.06.17.1.38.1.62v.23h-2.81Zm3.59.65c0-.07.01-.14.02-.22,0-.08.01-.16.01-.26,0-.1,0-.22,0-.37,0-.11,0-.23-.02-.37-.02-.14-.05-.29-.1-.45-.05-.16-.11-.31-.2-.47-.09-.15-.21-.29-.35-.41-.14-.12-.32-.22-.54-.3-.21-.07-.46-.11-.76-.11-.33,0-.64.06-.92.18-.28.12-.52.28-.74.48-.22.2-.4.44-.55.72-.15.27-.26.57-.34.89-.08.32-.12.64-.12.98,0,.44.08.83.24,1.15.16.33.38.58.67.76.3.18.65.27,1.06.27.41,0,.77-.07,1.08-.21.31-.14.57-.34.79-.61.22-.27.39-.6.52-.98h-.85c-.1.21-.21.39-.35.54-.13.15-.29.28-.48.36-.18.09-.4.13-.64.13-.28,0-.51-.06-.69-.17-.18-.11-.31-.26-.4-.47-.08-.2-.13-.44-.13-.73,0-.06,0-.12,0-.18,0-.06.02-.11.03-.16h3.73Zm8.22,1.6h-2.19c.2-.4.37-.79.53-1.19.15-.4.29-.8.41-1.22.12-.41.24-.85.34-1.3h1.69l-.78,3.71Zm-4.04,1.96h.82l.27-1.25h3.51l-.27,1.25h.82l.42-1.96h-.65l.94-4.41h-3.43c-.06.37-.15.75-.25,1.14-.1.39-.22.77-.35,1.15-.13.38-.27.75-.42,1.11-.15.36-.3.7-.46,1.01h-.52l-.42,1.96Zm10-1.25h.88l1.09-5.11h-3.66l-.86,3.37c-.07.29-.14.52-.2.68-.06.17-.13.28-.21.35-.08.07-.17.1-.29.1-.05,0-.1,0-.15,0-.04,0-.08-.02-.12-.03-.04-.01-.08-.04-.13-.07l-.14.71c.06.02.14.04.21.07.08.02.16.04.24.06.08.02.15.03.21.03.22,0,.4-.04.55-.11.15-.07.27-.18.37-.31.1-.13.18-.29.24-.46.07-.17.12-.36.17-.55l.8-3.07h1.91l-.92,4.35Zm7.55-5.11h-2.89c-.27,0-.5.04-.69.11-.19.07-.35.16-.47.27-.12.11-.22.23-.3.36-.07.13-.13.26-.16.38-.04.12-.06.23-.07.32-.01.09-.02.16-.01.2,0,.21.04.38.1.51.06.14.14.24.23.33.09.08.19.14.29.19.1.04.18.08.25.1-.17.02-.3.07-.4.14-.1.07-.17.16-.22.26-.06.1-.1.22-.15.34l-.38.99c-.04.12-.08.22-.12.29-.04.07-.07.12-.1.15-.03.03-.06.04-.08.05-.03,0-.05,0-.07,0v.14h1.01s.07-.09.1-.14c.03-.05.06-.11.1-.19.03-.08.07-.17.12-.29l.28-.8c.05-.15.11-.28.19-.37.07-.09.16-.16.27-.19.11-.04.25-.06.43-.06h1.19l-.43,2.03h.89l1.09-5.11Zm-1.41,2.39h-1.38s-.11,0-.18,0c-.08,0-.16-.02-.24-.04-.08-.02-.16-.06-.23-.11-.07-.05-.13-.13-.18-.22-.05-.09-.07-.21-.07-.35,0-.18.03-.34.09-.46.06-.12.13-.22.22-.29.09-.07.2-.12.31-.15.12-.03.23-.05.36-.04h1.66l-.35,1.68Zm5.82,2.73h.82l.88-4.24h.02l.43,4.24h.88l2.24-4.18h.02l-.93,4.18h.82l1.09-5.11h-1.2l-2.24,4.14h-.02l-.46-4.14h-1.26l-1.09,5.11Zm7.89-2.95c.05-.21.12-.41.21-.6.09-.19.21-.35.34-.49.14-.14.29-.26.47-.34.18-.08.38-.12.61-.12.15,0,.3.02.44.07.14.05.26.12.38.22.11.1.2.24.26.41.06.17.1.38.1.62v.23h-2.81Zm3.59.65c0-.07.01-.14.02-.22,0-.08.01-.16.01-.26,0-.1,0-.22,0-.37,0-.11,0-.23-.02-.37-.02-.14-.05-.29-.1-.45-.04-.16-.11-.31-.2-.47-.09-.15-.21-.29-.35-.41-.14-.12-.32-.22-.54-.3-.21-.07-.46-.11-.76-.11-.33,0-.64.06-.92.18-.28.12-.52.28-.74.48-.22.2-.4.44-.55.72-.15.27-.26.57-.34.89-.08.32-.12.64-.12.98,0,.44.08.83.24,1.15.16.33.38.58.68.76.3.18.65.27,1.06.27.41,0,.77-.07,1.08-.21.31-.14.57-.34.79-.61.22-.27.39-.6.52-.98h-.85c-.1.21-.21.39-.34.54-.13.15-.29.28-.48.36-.18.09-.4.13-.64.13-.29,0-.52-.06-.7-.17-.18-.11-.31-.26-.4-.47-.08-.2-.13-.44-.13-.73,0-.06,0-.12,0-.18,0-.06.02-.11.03-.16h3.73Zm4.89-4.81c-.02.07-.08.13-.16.17-.09.04-.2.09-.35.12-.14.04-.3.08-.48.13-.18.05-.38.11-.59.19-.21.08-.42.18-.64.3-.23.13-.43.29-.6.49-.17.2-.33.41-.46.66-.13.24-.24.5-.33.76-.09.27-.16.54-.21.81-.05.27-.09.54-.12.8-.02.26-.04.5-.04.72,0,.39.06.72.17,1,.11.27.26.49.46.66.19.17.4.29.64.36.24.08.48.11.73.11.32,0,.6-.04.86-.13.25-.09.48-.2.67-.36.19-.15.36-.32.51-.51.14-.19.26-.39.36-.6.1-.21.18-.42.24-.62.06-.21.1-.4.13-.58.03-.18.04-.34.04-.47,0-.29-.04-.54-.12-.76-.08-.22-.19-.41-.33-.56-.14-.16-.3-.28-.48-.38-.18-.1-.36-.17-.56-.22-.19-.05-.38-.07-.57-.07-.19,0-.35.01-.5.04-.15.03-.29.08-.43.15-.14.07-.29.17-.46.29h-.02c.13-.24.25-.44.37-.61.12-.16.26-.3.4-.4.14-.1.31-.19.5-.26.19-.07.42-.12.69-.17.28-.04.51-.11.69-.2.18-.09.33-.2.45-.35.12-.14.2-.31.26-.5h-.73Zm-1.28,2.7c.24,0,.45.05.64.16.18.11.33.26.43.46.11.2.16.46.16.76,0,.12-.02.27-.04.44-.03.17-.07.35-.14.53-.06.18-.14.37-.24.55-.1.18-.21.34-.35.49-.14.15-.29.26-.47.35-.18.09-.38.13-.61.13-.26,0-.47-.06-.65-.17-.18-.11-.31-.28-.4-.49-.09-.21-.14-.47-.14-.77,0-.25.03-.5.08-.74.05-.24.13-.46.23-.66.1-.21.23-.38.37-.54.15-.15.31-.27.5-.36.19-.09.39-.13.62-.13m3.95,1.47c.05-.21.12-.41.21-.6.09-.19.21-.35.34-.49.14-.14.29-.26.47-.34.18-.08.38-.12.61-.12.15,0,.3.02.44.07.14.05.26.12.38.22.11.1.2.24.26.41.06.17.1.38.1.62v.23h-2.81Zm3.59.65c0-.07.01-.14.02-.22,0-.08,0-.16.01-.26,0-.1,0-.22,0-.37,0-.11,0-.23-.02-.37-.02-.14-.05-.29-.1-.45-.05-.16-.11-.31-.2-.47-.09-.15-.21-.29-.35-.41-.15-.12-.32-.22-.54-.3-.21-.07-.46-.11-.76-.11-.33,0-.64.06-.92.18-.28.12-.52.28-.74.48-.22.2-.4.44-.55.72-.15.27-.26.57-.34.89-.08.32-.12.64-.12.98,0,.44.08.83.24,1.15.15.33.38.58.68.76.29.18.65.27,1.06.27.41,0,.77-.07,1.08-.21.31-.14.57-.34.79-.61.21-.27.39-.6.52-.98h-.85c-.1.21-.21.39-.35.54-.13.15-.29.28-.47.36-.18.09-.4.13-.65.13-.28,0-.51-.06-.69-.17-.18-.11-.31-.26-.4-.47-.08-.2-.13-.44-.13-.73,0-.06,0-.12,0-.18,0-.06.02-.11.03-.16h3.73Zm4.3,2.31h.88l1.09-5.11h-3.66l-.86,3.37c-.07.29-.14.52-.2.68-.06.17-.13.28-.21.35-.08.07-.17.1-.29.1-.05,0-.1,0-.15,0-.04,0-.08-.02-.12-.03-.04-.01-.08-.04-.13-.07l-.14.71c.06.02.13.04.21.07.08.02.16.04.24.06.08.02.15.03.21.03.22,0,.4-.04.55-.11.15-.07.27-.18.37-.31s.18-.29.24-.46c.07-.17.12-.36.17-.55l.8-3.07h1.91l-.92,4.35Zm2.4,0h.92l3.16-3.91h.02l-.83,3.91h.88l1.08-5.11h-.98l-3.06,3.72h-.02l.79-3.72h-.88l-1.08,5.11Z"/>
      <path class="cls-3" d="m112.33,19.3v8.43h-5.61v-12.81h8.25c6.03,0,10.96,4.7,10.96,10.78s-4.96,10.78-10.96,10.78h-8.25v-8.03h5.61v3.61h1.5c4.15,0,6.47-2.98,6.49-6.42.03-4.47-3.85-6.34-6.55-6.34h-1.44ZM31.09,36.85c-5.19,0-9.55-3.57-10.75-8.4h5.75c.96,1.78,2.84,2.99,5.01,2.99s4.05-1.21,5.01-2.99h5.75c-1.2,4.82-5.56,8.4-10.75,8.4m-10.92-9.21c-.1-.61-.16-1.24-.16-1.87,0-6.12,4.96-11.08,11.08-11.08s11.08,4.96,11.08,11.08c0,.64-.05,1.26-.16,1.87h-5.56c.2-.59.32-1.22.32-1.87,0-3.14-2.54-5.68-5.68-5.68s-5.68,2.54-5.68,5.68c0,.66.11,1.29.32,1.87h-5.56Zm53.65,0l-1.54-6.08h-.05l-2.05,6.08h-5.85l4.9-12.73h5.88l4.56,12.73h-5.84Zm6.13.78l3.03,8.04h-5.92l-1.47-3.74h-7.24l-1.49,3.74h-5.95l3.09-8.04h15.94Zm-30.38-.78l-8.3-12.73h6.72l4.64,7.82,4.65-7.82h6.72l-8.3,12.73h-6.13Zm5.9,8.82h-5.7v-8.04h5.7v8.04Zm-45.58,0H0V14.92h9.26c3.72,0,6.7,2.05,6.7,5.78,0,3.19-1.8,4-2.49,4.34,1.78.3,2.88,1.08,3.7,2.62H5.66v4.62c2.64,0,6.29.21,6.37-2.37.02-.63-.18-1.12-.46-1.46h5.87c1.47,5.39-2.57,8.04-7.56,8.04m-4.24-17.17v4.29c2.17.04,5.24.18,5.24-2.23s-2.98-2.09-5.24-2.05m92.42,9.13l6.16,8.04h-6.98l-5.13-8.04h5.94Zm-6.18-9.13v5.23c1.88,0,4.48-.14,4.48-2.72s-2.61-2.51-4.48-2.51m.02,17.17h-5.6v-8.04h5.6v8.04Zm5.57-8.82h-11.18v-12.74h8.38c4.25,0,7.37,2.07,7.37,6.63,0,2.99-1.53,5.56-4.58,6.11"/>
      <path class="cls-1" d="m85.25,13.61L90.44,0l4.19,7.65-2.29,5.96h-7.09Zm-15.47,0L74.97,0l4.19,7.65-2.29,5.96h-7.09Zm7.74,0L82.71,0c1.4,2.55,2.79,5.1,4.19,7.65l-2.29,5.96h-7.09Z"/>
    </g>
  </g>
</svg>
