<?xml version="1.0" encoding="UTF-8"?>
<svg id="_Слой_2" data-name="Слой 2" xmlns="http://www.w3.org/2000/svg" xmlns:xlink="http://www.w3.org/1999/xlink" viewBox="0 0 85.04 23.12">
  <defs>
    <style>
      .cls-1 {
        clip-path: url(#clippath-2);
      }

      .cls-2 {
        fill: none;
      }

      .cls-2, .cls-3 {
        stroke-width: 0px;
      }

      .cls-4 {
        clip-path: url(#clippath-1);
      }

      .cls-3 {
        fill: #b3b3b3;
      }

      .cls-5 {
        clip-path: url(#clippath);
      }
    </style>
    <clipPath id="clippath">
      <rect class="cls-2" width="85.04" height="23.12"/>
    </clipPath>
    <clipPath id="clippath-1">
      <rect class="cls-2" width="85.04" height="23.12"/>
    </clipPath>
    <clipPath id="clippath-2">
      <rect class="cls-2" x=".1" y=".18" width="84.85" height="22.79"/>
    </clipPath>
  </defs>
  <g id="_Слой_1-2" data-name="Слой 1">
    <g class="cls-5">
      <path class="cls-3" d="m7.88,13.9l-.8-6.55c-.04-.3-.24-.58-.55-.68-.31-.11-.64-.02-.86.19L.92,11.45c-.1.1-.18.2-.23.35-.16.44.07.92.52,1.07.1.04.18.05.28.05h1.55s.06-.01.1,0c.14.05.22.2.17.35l-.26.74L.1,22.32h.6l3.12-8.86s.01-.01.01-.02c.16-.43-.07-.92-.52-1.07-.1-.04-.19-.05-.29-.05h-.74s-.37.01-.37.01h-.42s-.06,0-.1-.01c-.14-.05-.22-.2-.17-.35.01-.05.05-.08.08-.12l.56-.54,3.58-3.48.61-.6c.07-.07.18-.1.28-.06.1.04.17.12.18.23l.11.84.61,4.96.1.77s0,.1-.01.14c-.05.14-.2.22-.35.17-.04-.01-.06-.02-.08-.05l-.32-.26-.29-.23-.58-.47c-.07-.06-.16-.11-.25-.14-.43-.16-.92.07-1.07.52t-.01.02l-3.06,8.66h.6l2.74-7.75.26-.74c.05-.14.2-.22.35-.17.04.01.06.02.08.05l.61.5.59.48c.07.06.16.11.24.14.43.16.92-.07,1.07-.52.05-.16.06-.3.04-.43"/>
    </g>
    <polygon class="cls-3" points="32.78 1.25 25.32 22.33 31.75 22.33 39.24 1.25 32.78 1.25"/>
    <g class="cls-4">
      <path class="cls-3" d="m51.06,22.33h6.37l3.32-9.29c1.33-2.23,4-1.73,3.5.23l-3.19,9.06h6.66l3.16-8.86c.84-2.22,4.33-2.36,3.56.26l-2.96,8.59h6.43l3.6-10.19c1.2-3.47-3.04-8.1-10.32-3-.86-2.33-4.45-3.79-9.25-.4l.32-1.38h-5.98l-5.23,14.96Z"/>
      <path class="cls-3" d="m81.62,1.52c.19-.66.8-1.15,1.54-1.15.88,0,1.6.72,1.6,1.6s-.72,1.6-1.6,1.6-1.61-.71-1.61-1.6c-.01-.16.01-.3.07-.44l-.18-.08c-.05.17-.08.35-.08.53,0,1,.79,1.8,1.8,1.8s1.8-.8,1.8-1.8-.82-1.8-1.8-1.8c-.82,0-1.49.53-1.72,1.27l.18.08Z"/>
    </g>
    <g class="cls-1">
      <path class="cls-3" d="m82.84,1.93h-.06v-.54h.74c.34.1.19.54-.06.54h-.62v.19h.44c.55.07.28.59.41.74h.19c-.14-.2.11-.6-.25-.78.48-.22.28-.89-.17-.88h-.88v1.66h.17v-.73h.08v-.2Z"/>
      <path class="cls-3" d="m44.52,7.34h-6.04l-3.55,9.96c-1.78,5.63,3.89,7.49,9.28,3.6l-.36,1.43h5.75l5.3-14.96h-6.16l-3.14,8.54c-.73,2.09-4.82,3.26-4.2.06l3.12-8.63Z"/>
      <path class="cls-3" d="m17.83,8.14l2.4-6.92h-6.46l-7.42,21.11h6.06l.7-1.67c.37,2.53,8.72,4.66,13.18-4.33,3.49-6.48-.5-12.91-8.46-8.18m2.2,8.03c-1.2,1.48-3.12,2.22-4.22,1.49-1.2-.8-1.13-2.63.07-4.36.29-.43.6-.8.94-1.1,1.13-1.07,2.42-1.42,3.47-.73,1.21.8,1.01,3.13-.25,4.7"/>
    </g>
  </g>
</svg>
