<?xml version="1.0" encoding="UTF-8"?>
<svg id="_Слой_2" data-name="Слой 2" xmlns="http://www.w3.org/2000/svg" xmlns:xlink="http://www.w3.org/1999/xlink" viewBox="0 0 117.54 31.99">
  <defs>
    <style>
      .cls-1 {
        fill: #f43;
      }

      .cls-1, .cls-2, .cls-3, .cls-4, .cls-5 {
        stroke-width: 0px;
      }

      .cls-3 {
        fill: none;
      }

      .cls-4 {
        fill: #fff;
      }

      .cls-6 {
        clip-path: url(#clippath);
      }

      .cls-5 {
        fill: #fc0;
        fill-rule: evenodd;
      }
    </style>
    <clipPath id="clippath">
      <rect class="cls-3" width="117.54" height="31.99"/>
    </clipPath>
  </defs>
  <g id="_Слой_1-2" data-name="Слой 1">
    <g class="cls-6">
      <path class="cls-1" d="m6,0C2.69,0,0,2.69,0,6c0,1.66.67,3.16,1.76,4.24,1.09,1.09,3.64,2.66,3.79,4.31.02.25.2.45.45.45s.43-.2.45-.45c.15-1.65,2.71-3.22,3.79-4.31,1.09-1.09,1.76-2.59,1.76-4.24C12,2.69,9.31,0,6,0"/>
      <path class="cls-4" d="m6,8.1c1.16,0,2.1-.94,2.1-2.1s-.94-2.1-2.1-2.1-2.1.94-2.1,2.1.94,2.1,2.1,2.1"/>
      <path class="cls-2" d="m26.48,12.32h2.12V.14h-3.09c-3.1,0-4.73,1.59-4.73,3.94,0,1.88.89,2.98,2.49,4.12l-2.77,4.12h2.3l3.09-4.61-1.07-.72c-1.3-.87-1.93-1.56-1.93-3.03,0-1.3.91-2.17,2.65-2.17h.95v10.54h-.01Zm40.91.18c.97,0,1.65-.17,2.16-.54v-1.7c-.53.37-1.16.59-2.03.59-1.49,0-2.11-1.16-2.11-2.98,0-1.91.76-2.89,2.12-2.89.81,0,1.59.28,2.01.54v-1.77c-.44-.25-1.21-.42-2.24-.42-2.67,0-4.05,1.91-4.05,4.59,0,2.95,1.35,4.57,4.14,4.57h0Zm-13.04-.77v-1.7c-.65.44-1.74.82-2.75.82-1.53,0-2.1-.71-2.19-2.19h5.03v-1.1c0-3.07-1.35-4.23-3.44-4.23-2.54,0-3.75,1.94-3.75,4.61,0,3.07,1.51,4.56,4.18,4.56,1.33,0,2.31-.35,2.93-.77h0Zm6.66.59h2.36l-3.35-4.69,2.95-4.14h-2.11l-2.94,4.14V3.5h-2.09v8.82h2.09v-4.26l3.09,4.26m-14.28-1.64h-.93V3.5h-6.08v.76c0,2.15-.14,4.94-.87,6.42h-.65v3.66h1.93v-2.01h4.68v2.01h1.93v-3.66h-.01Zm-11.5-7.18v3.49h-2.79v-3.49h-2.09v8.82h2.09v-3.68h2.79v3.68h2.09V3.5h-2.09Zm15.73,1.48c1.03,0,1.35.86,1.35,1.96v.17h-2.91c.06-1.4.56-2.14,1.56-2.14h0Zm-7.24,5.7h-2.95c.58-1.33.74-3.73.74-5.26v-.27h2.21v5.53Zm36.72,1.64h2.47l-4.33-6.4,3.93-5.79h-2.16l-3.77,5.61V.14h-2.12v12.19h2.12v-5.72l3.86,5.72h0Zm9.59-6.01c0-2.14-1.09-2.94-3.3-2.94-1.38,0-2.47.44-3.1.81v1.74c.56-.43,1.79-.88,2.86-.88,1,0,1.45.35,1.45,1.3v.49h-.34c-3.19,0-4.61,1.06-4.61,2.84s1.08,2.79,2.7,2.79c1.23,0,1.75-.4,2.16-.82h.09c.02.23.09.53.15.7h2.04c-.07-.72-.11-1.44-.11-2.16v-3.86h0Zm-2.09,3.91c-.27.39-.76.7-1.49.7-.87,0-1.32-.49-1.32-1.24,0-1,.72-1.37,2.51-1.37h.3v1.91m5.7-6.72h-1.93v11.36h2.09v-3.57c.53.79,1.3,1.21,2.2,1.21,2.03,0,3.44-1.63,3.44-4.59s-1.37-4.57-3.33-4.57c-.98,0-1.79.45-2.35,1.31l-.11-1.14h-.01Zm1.83,7.35c-1.11,0-1.67-.89-1.67-2.93s.6-2.94,1.78-2.94,1.7.89,1.7,2.93-.6,2.94-1.8,2.94h-.01Zm11.3-5.7v-1.65h-7v1.65h2.46v7.17h2.09v-7.17h2.46,0Zm1.23-1.65v8.82h3.18c2.05,0,3.51-1.05,3.51-3.13,0-1.96-1.3-3-3.47-3h-1.12v-2.7h-2.1Zm7.45,8.82h2.09V3.5h-2.09v8.82Zm-4.39-1.64h-.97v-2.83h1.02c.9,0,1.42.4,1.42,1.42s-.58,1.41-1.47,1.41"/>
      <path class="cls-5" d="m27.28,29.64l-3.71,2.27c-.26.16-.59.08-.75-.18-.08-.12-.1-.27-.06-.42l1.07-4.28-3.12-2.43c-.24-.18-.28-.53-.1-.77.09-.12.23-.2.39-.21l4.08-.34,1.7-3.97c.12-.28.44-.41.72-.29.13.06.23.16.29.29l1.69,3.97,4.11.34c.5.04.68.67.29.98l-3.13,2.42,1.07,4.28c.07.29-.11.59-.4.66-.14.04-.29,0-.42-.06l-3.72-2.27h0Z"/>
      <path class="cls-5" d="m46.43,29.64l-3.71,2.27c-.26.16-.59.08-.75-.18-.08-.12-.1-.27-.06-.42l1.07-4.28-3.12-2.43c-.24-.18-.28-.53-.1-.77.09-.12.23-.2.39-.21l4.08-.34,1.7-3.97c.12-.28.44-.41.72-.29.13.06.23.16.29.29l1.69,3.97,4.11.34c.5.04.68.67.29.98l-3.13,2.42,1.07,4.28c.07.29-.11.59-.4.66-.14.04-.29,0-.42-.06l-3.72-2.27h0Z"/>
      <path class="cls-5" d="m65.54,29.64l-3.71,2.27c-.26.16-.59.08-.75-.18-.08-.12-.1-.27-.06-.42l1.07-4.28-3.12-2.43c-.24-.18-.28-.53-.1-.77.09-.12.23-.2.39-.21l4.08-.34,1.7-3.97c.12-.28.44-.41.72-.29.13.06.23.16.29.29l1.69,3.97,4.11.34c.5.04.68.67.29.98l-3.13,2.42,1.07,4.28c.07.29-.11.59-.4.66-.14.04-.29,0-.42-.06l-3.72-2.27h0Z"/>
      <path class="cls-5" d="m84.79,29.64l-3.71,2.27c-.26.16-.59.08-.75-.18-.08-.12-.1-.27-.06-.42l1.07-4.28-3.12-2.43c-.24-.18-.28-.53-.1-.77.09-.12.23-.2.39-.21l4.08-.34,1.7-3.97c.12-.28.44-.41.72-.29.13.06.23.16.29.29l1.69,3.97,4.11.34c.5.04.68.67.29.98l-3.13,2.42,1.07,4.28c.07.29-.11.59-.4.66-.14.04-.29,0-.42-.06l-3.72-2.27h0Z"/>
      <path class="cls-5" d="m103.91,29.64l-3.71,2.27c-.26.16-.59.08-.75-.18-.08-.12-.1-.27-.06-.42l1.07-4.28-3.12-2.43c-.24-.18-.28-.53-.1-.77.09-.12.23-.2.39-.21l4.08-.34,1.7-3.97c.12-.28.44-.41.72-.29.13.06.23.16.29.29l1.69,3.97,4.11.34c.5.04.68.67.29.98l-3.13,2.42,1.07,4.28c.07.29-.11.59-.4.66-.14.04-.29,0-.42-.06l-3.72-2.27h0Z"/>
    </g>
  </g>
</svg>