<?xml version="1.0" encoding="UTF-8"?>
<svg id="_Слой_2" data-name="Слой 2" xmlns="http://www.w3.org/2000/svg" viewBox="0 0 885.83 146.07">
  <defs>
    <style>
      .cls-1 {
        fill: #b3b3b3;
      }

      .cls-1, .cls-2 {
        stroke-width: 0px;
      }

      .cls-2 {
        fill: #b3b3b3;
      }
    </style>
  </defs>
  <g id="_Слой_1-2" data-name="Слой 1">
    <polygon class="cls-2" points="497.28 .25 497.28 146 622.2 146 622.19 114.07 535.27 114.07 535.27 86.61 608.57 86.61 608.57 57.39 535.27 57.39 535.27 29.17 620.82 29.17 620.81 .25 497.28 .25"/>
    <polygon class="cls-2" points="760.59 146.06 885.83 146.06 885.82 114.03 798.88 114.03 798.88 86.58 870.93 86.58 870.93 57.35 798.88 57.35 798.89 29.13 884.47 29.13 884.47 .26 760.47 .06 760.59 146.06"/>
    <polygon class="cls-2" points="148.11 0 110.38 .05 110.38 54.83 37.74 54.83 37.74 .05 0 .05 0 145.98 37.74 145.99 37.74 89.37 110.38 89.37 110.41 146 148.11 146.03 148.11 0"/>
    <polygon class="cls-2" points="360.58 146.06 399.31 146.06 399.31 86.58 474.48 86.58 474.51 56.85 399.31 56.85 399.3 29.05 488.72 29.05 488.72 .27 360.58 .23 360.58 146.06"/>
    <path class="cls-1" d="m253.05,36.39l26.61,49.35h-53.54l26.94-49.35ZM237.64.19l-81.04,145.88h38.91l17.61-31.03h80.66l17.73,31.01h40.7L270.9.19h-33.26Z"/>
    <rect class="cls-1" x="174.53" y=".22" width="35.42" height="25.34"/>
    <polygon class="cls-1" points="332.73 .25 297.17 .17 297.17 25.55 332.73 25.55 332.73 .25"/>
    <polygon class="cls-2" points="631.95 .28 632 146.01 752.13 146.03 752.06 113.55 672.86 113.54 672.88 .23 631.95 .28"/>
  </g>
</svg>
