<?xml version="1.0" encoding="UTF-8"?>
<svg id="_Слой_2" data-name="Слой 2" xmlns="http://www.w3.org/2000/svg" xmlns:xlink="http://www.w3.org/1999/xlink"
     viewBox="0 0 99.71 26">
    <defs>
        <style>
            .cls-1, .cls-2, .cls-3, .cls-4 {
            stroke-width: 0px;
          fill: #b3b3b3;
            }

            .cls-2 {
            fill: none;
            }

            .cls-5 {
            clip-path: url(#clippath);
            }

            .cls-3 {
            fill: #b3b3b3;
            }

            .cls-4 {
            fill: #b3b3b3;
            }
        </style>
        <clipPath id="clippath">
            <rect class="cls-2" width="99.71" height="26"/>
        </clipPath>
    </defs>
    <g id="_Слой_1-2" data-name="Слой 1">
        <polygon class="cls-4" points="0 .54 0 20.48 4.98 20.48 4.98 5.52 19.94 5.52 19.94 .54 0 .54"/>
        <polygon class="cls-3" points="19.94 5.52 19.94 20.48 4.98 20.48 4.98 25.46 24.93 25.46 24.93 5.52 19.94 5.52"/>
        <path class="cls-1"
              d="m44,5.17l3.31,10.99h-6.63l3.31-10.99Zm-4.26-4.63l-8.59,24.93h6.59l1.51-4.64h9.47l1.52,4.64h6.58L48.25.54h-8.51Z"/>
        <polygon class="cls-1"
                 points="81.76 .54 81.76 6.52 87.42 6.52 87.42 25.46 94.05 25.46 94.05 6.52 99.71 6.52 99.71 .54 81.76 .54"/>
        <g class="cls-5">
            <path class="cls-1"
                  d="m68.6,0c3.34,0,7.79,1.07,10.54,4.6.27.35.61.85.85,1.26l-5.8,2.66-.15-.24c-1.16-1.72-3.42-2.58-5.44-2.58s-3.79.86-4.95,2.58c-.8,1.19-1.35,2.88-1.35,4.98s.55,3.79,1.35,4.98c1.15,1.72,2.93,2.59,4.95,2.59,2.28,0,4.51-.67,5.67-2.39.39-.58.72-1.41.93-2.27h-6.6v-5.16h12.96c.07.64.11,1.31.11,1.99,0,3.46-1.02,6.55-2.56,8.52-2.75,3.53-7.18,4.48-10.51,4.48s-7.49-1.2-10.24-4.73c-1.54-1.98-2.83-4.8-2.83-8.27s1.29-6.29,2.83-8.27c2.75-3.53,6.9-4.73,10.24-4.73"/>
        </g>
    </g>
</svg>
