<svg version="1.1" xmlns="http://www.w3.org/2000/svg" xmlns:xlink="http://www.w3.org/1999/xlink" x="0px" y="0px"
     width="140"
     height="48"
     viewBox="0 0 117.4 39.5" style="overflow:visible;enable-background:new 0 0 117.4 39.5;" xml:space="preserve">
                                <style type="text/css">
                                    .st0{clip-path:url(#SVGID_2_);fill-rule:evenodd;clip-rule:evenodd;fill:#b3b3b3;}
                                    .st1{clip-path:url(#SVGID_4_);fill-rule:evenodd;clip-rule:evenodd;fill:#707277;}
                                </style>
    <g>
                                <defs>
                                    <rect id="SVGID_1_" x="0" width="117.4" height="39.5"/>
                                </defs>
        <clipPath id="SVGID_2_">
                                    <use xlink:href="#SVGID_1_"  style="overflow:visible;"/>
                                </clipPath>
        <path class="st0" d="M34.1,34.6l-17,5V29.5L34.1,34.6z M0.2,5l17,5.1V0L0.2,5z M0,15.4v7.4l34.2,10.3v-7.4L0,15.4z M34.2,24.1
                                    L0,13.9V6.4l34.2,10.3V24.1z M38.6,28.3l4.3-0.6c0.2,0.8,0.6,1.4,1.1,1.9c0.6,0.4,1.4,0.6,2.4,0.6c1.1,0,2-0.2,2.5-0.6
                                    c0.4-0.3,0.6-0.7,0.6-1.1c0-0.3-0.1-0.6-0.3-0.8c-0.2-0.2-0.7-0.4-1.4-0.6c-3.5-0.8-5.7-1.4-6.6-2.1c-1.3-0.9-1.9-2.1-1.9-3.6
                                    c0-1.4,0.6-2.5,1.7-3.5c1.1-0.9,2.9-1.4,5.2-1.4c2.2,0,3.9,0.4,5,1.1c1.1,0.7,1.8,1.8,2.2,3.2l-4.1,0.7c-0.2-0.6-0.5-1.1-1-1.4
                                    c-0.5-0.3-1.2-0.5-2.1-0.5c-1.1,0-2,0.2-2.5,0.5c-0.3,0.2-0.5,0.5-0.5,0.9c0,0.3,0.1,0.6,0.4,0.8c0.4,0.3,1.7,0.7,4,1.2
                                    c2.3,0.5,3.9,1.1,4.8,1.9c0.9,0.8,1.4,1.8,1.4,3.1c0,1.5-0.6,2.7-1.9,3.8c-1.3,1.1-3.1,1.6-5.6,1.6c-2.2,0-4-0.4-5.3-1.3
                                    C39.9,31.1,39,29.9,38.6,28.3 M55.4,32.9h4.3V10.8h-4.3V32.9z M60.9,24.7c0,1.8,0.4,3.4,1.1,4.7c0.7,1.3,1.7,2.3,3.1,2.9
                                    c1.4,0.7,2.8,1,4.3,1c2.4,0,4.4-0.8,6-2.4c1.6-1.6,2.4-3.6,2.4-6c0-2.4-0.8-4.4-2.4-6c-1.6-1.6-3.6-2.4-6.1-2.4
                                    c-1.6,0-3.1,0.3-4.4,1c-1.3,0.7-2.3,1.7-3,3C61.3,21.9,60.9,23.3,60.9,24.7 M65.4,24.9c0,1.6,0.4,2.8,1.2,3.6
                                    c0.8,0.8,1.7,1.3,2.9,1.3c1.1,0,2.1-0.4,2.8-1.3c0.8-0.8,1.2-2.1,1.2-3.7c0-1.6-0.4-2.8-1.2-3.6c-0.8-0.8-1.7-1.3-2.8-1.3
                                    c-1.1,0-2.1,0.4-2.9,1.3C65.7,22.1,65.4,23.3,65.4,24.9 M86.4,16.9v3.4h-3v6.4c0,1.3,0,2.1,0.1,2.3c0.1,0.2,0.2,0.4,0.4,0.5
                                    c0.2,0.1,0.4,0.2,0.7,0.2c0.4,0,1-0.1,1.7-0.4l0.4,3.3c-1,0.4-2.1,0.6-3.4,0.6c-0.8,0-1.5-0.1-2.1-0.4c-0.6-0.3-1.1-0.6-1.4-1
                                    c-0.3-0.4-0.5-1-0.6-1.6c-0.1-0.5-0.1-1.5-0.1-3v-7h-2v-3.4h2v-3.2l4.3-2.5v5.6H86.4z M97.4,27.8c-0.2,0.8-0.6,1.4-1,1.7
                                    c-0.5,0.4-1,0.5-1.7,0.5c-1,0-1.8-0.3-2.5-1c-0.7-0.7-1-1.7-1-2.9h10.8c0.1-3.2-0.6-5.6-2-7.2c-1.4-1.6-3.3-2.4-5.8-2.4
                                    c-2.2,0-4,0.8-5.4,2.3c-1.4,1.5-2.1,3.6-2.1,6.2c0,2.2,0.5,4.1,1.6,5.5c1.4,1.8,3.5,2.7,6.3,2.7c1.8,0,3.3-0.4,4.5-1.2
                                    c1.2-0.8,2.1-2,2.6-3.5L97.4,27.8z M97.6,23.5c0-1.2-0.4-2.2-1-2.8c-0.6-0.6-1.4-1-2.3-1c-0.9,0-1.7,0.3-2.3,1
                                    c-0.6,0.7-0.9,1.6-0.9,2.7H97.6z M100.3,32.9l5.9-8.2l-5.7-7.8h5.3l2.9,4.4l3.1-4.4h5.1l-5.5,7.6l6.1,8.4h-5.3l-3.3-5l-3.4,5H100.3
                                    z"/>
                            </g>
                            </svg>